# xmcd
# 
# Track frame offsets:
#     150
#     20512
#     30837
#     50912
#     64107
#     78357
#     90537
#     110742
#     126817
#     144657
#     153490
#     160700
#     175270
#     186830
#     201800
#     218010
#     237282
#     244062
#     262600
#     284179
# 
# Disc length: 3923
# 
# Revision: 4
# Processed by: cddbd v1.5.2PL0 Copyright (c) Steve Scherf et al.
# Submitted via: fre:ac v1.1beta1pre4
# 
DISCID=180f5114
DTITLE=Various Artist - O Brother Where Art Thou [Soundtrack]
DYEAR=2001
DGENRE=Soundtrack
TTITLE0=Po Lazarus (ft. James Carter and The Prisoners)
TTITLE1=Big Rock Candy Mountain (ft. Harry McClintock)
TTITLE2=You Are My Sunshine (ft. Norman Blake)
TTITLE3=Down to The River to Pray (ft. Alison Krauss)
TTITLE4=I am a Man of Constant Sorrow (ft. The Soggy Bottom Boys)
TTITLE5=Hard Time Killing Floor Blues (ft. Chris Thomas King)
TTITLE6=I am a Man of Constant Sorrow (ft. Norman Blake)
TTITLE7=Keep on The Sunny Side (ft. The Whites)
TTITLE8=I'll Fly Away (ft. Alison Krauss And Gillian Welch)
TTITLE9=Didn't Leave Nobody But The Baby (ft. Emmylou Harris, Alison Krauss, Gillian Welch)
TTITLE10=In The Highways (ft. Sarah, Hannah, Leah Peasall)
TTITLE11=I am Weary [Let me Rest] (ft. The Cox Family)
TTITLE12=I am a Man of Constant Sorrow (ft. John Hartford)
TTITLE13=O Death (ft. Ralph Stanley)
TTITLE14=In The Jailhouse Now (ft. The Soggy Bottom Boys)
TTITLE15=I am a Man of Constant Sorrow (ft. The Soggy Bottom Boys)
TTITLE16=Indian War Whoop (ft. John Hartford)
TTITLE17=Lonesome Valley (ft. Fairfield Four)
TTITLE18=Angel Band (ft. The Stanley Brothers)
TTITLE19=DATA
EXTD=
EXTT0=
EXTT1=
EXTT2=
EXTT3=
EXTT4=
EXTT5=
EXTT6=
EXTT7=
EXTT8=
EXTT9=
EXTT10=
EXTT11=
EXTT12=
EXTT13=
EXTT14=
EXTT15=
EXTT16=
EXTT17=
EXTT18=
EXTT19=
PLAYORDER=
